<svg xmlns="http://www.w3.org/2000/svg" width="29.32" height="31.5" viewBox="0 0 29.32 31.5">
  <path id="Icon_awesome-airbnb" data-name="Icon awesome-airbnb" d="M15.75,26.235a14.8,14.8,0,0,1-3.164-5.849,3.4,3.4,0,1,1,6.332,0,15.326,15.326,0,0,1-3.164,5.849Zm9.714,5.149c-2.957,1.287-5.883-.765-8.388-3.549,7.305-9.146,3.242-14.063-1.325-14.063-3.862,0-5.988,3.27-5.153,7.066a19.11,19.11,0,0,0,3.827,7c-2.287,2.535-4.257,3.7-5.987,3.862a4.7,4.7,0,0,1-5.013-6.4C4.486,22.539,11.28,9.037,11.571,8.307c1.107-2.114,1.8-4.036,4.175-4.036,2.274,0,3.052,1.824,4.245,4.21,2.531,4.965,6.282,12.479,8.075,16.811A4.7,4.7,0,0,1,25.464,31.384Zm3.3-9.571C19.706,2.526,19.2,2.25,15.75,2.25c-3.2,0-4.561,2.227-5.953,5.118C2.333,22.3,1.609,24.412,1.547,24.6a6.7,6.7,0,0,0,6.3,9.154c1.526,0,4.262-.426,7.9-4.388,4.126,4.485,7.12,4.388,7.9,4.388a6.7,6.7,0,0,0,6.3-9.154c0-.274-1.183-2.735-1.183-2.783Z" transform="translate(-1.089 -2.25)" fill="#929292"/>
</svg>
