<svg xmlns="http://www.w3.org/2000/svg" width="36" height="33.844" viewBox="0 0 36 33.844">
  <path id="Icon_awesome-snapchat-ghost" data-name="Icon awesome-snapchat-ghost" d="M35.919,27.61c-.366.855-1.915,1.483-4.736,1.921a13.188,13.188,0,0,0-.458,1.684.814.814,0,0,1-.853.624h-.021c-.661,0-1.35-.3-2.732-.3a5.565,5.565,0,0,0-3.955,1.448,7.919,7.919,0,0,1-5.205,1.926c-2.225.164-4.08-1.189-5.124-1.927a5.558,5.558,0,0,0-3.954-1.447,26.557,26.557,0,0,0-2.732.332.834.834,0,0,1-.873-.636,13.024,13.024,0,0,0-.459-1.7C3.363,29.308.085,28.736,0,27.273A.747.747,0,0,1,.625,26.5c4.893-.805,7.1-5.829,7.188-6.042.005-.012.011-.024.017-.036A1.6,1.6,0,0,0,8,19.1c-.355-.836-1.889-1.137-2.535-1.392-1.667-.659-1.9-1.415-1.8-1.934a1.81,1.81,0,0,1,2.32-1.087,4.024,4.024,0,0,0,1.656.443,1.435,1.435,0,0,0,.7-.153c-.144-2.527-.5-6.138.4-8.154a9.579,9.579,0,0,1,8.893-5.738l.711-.006a9.514,9.514,0,0,1,8.91,5.741c.9,2.014.545,5.61.4,8.157a1.378,1.378,0,0,0,.6.15,4.2,4.2,0,0,0,1.552-.44,1.9,1.9,0,0,1,1.44,0h0a1.46,1.46,0,0,1,1.1,1.256c.013.685-.6,1.277-1.82,1.759-.149.059-.33.116-.523.178-.689.218-1.73.549-2.012,1.214a1.6,1.6,0,0,0,.173,1.318c.006.012.012.024.017.036.091.213,2.293,5.235,7.188,6.042A.767.767,0,0,1,35.919,27.61Z" transform="translate(0 -1.078)" fill="#929292"/>
</svg>
